<svg xmlns="http://www.w3.org/2000/svg" version="1.1" xmlns:xlink="http://www.w3.org/1999/xlink" xmlns:svgjs="http://svgjs.dev/svgjs" width="1000" height="1125" viewBox="0 0 1000 1125"><g transform="matrix(1,0,0,1,1.7053025658242404e-13,0)"><svg viewBox="0 0 320 360" data-background-color="#ffffff" preserveAspectRatio="xMidYMid meet" height="1125" width="1000" xmlns="http://www.w3.org/2000/svg" xmlns:xlink="http://www.w3.org/1999/xlink"><g id="tight-bounds" transform="matrix(1,0,0,1,0,0)"><svg viewBox="0 0 320 360" height="360" width="320"><g><svg></svg></g><g><svg viewBox="0 0 320 360" height="360" width="320"><g><path xmlns="http://www.w3.org/2000/svg" d="M20.961 227.22l3.726 4.658-1.863-6.056c-0.466-2.795-3.726 0.466-1.863 1.398M25.153 224.425c1.397 2.329 2.795 4.658 2.795 6.987 0 3.261 2.795 4.658 5.123 5.589-3.261-3.726-5.124-13.974-7.918-12.576M204.017 26.929c7.918 0 15.371-0.932 23.756 0.931 20.495 5.124 37.729 15.371 49.374 29.811l32.606 52.169c1.397 13.042 4.192 27.482 3.726 43.319 3.261 0 2.795-4.658 6.521-5.59-3.726 9.316-5.59 20.961-6.521 34.469-2.329-7.453 0-18.632 0.466-24.687-3.261 5.124-5.124 1.397-5.124-0.932 0.466-3.726-1.397-3.261-2.795-4.658-5.124-4.658-8.384-9.782-12.11-17.7 2.329-6.055 2.795-14.905-4.658-19.563-2.329-1.397-5.124-3.726-6.521-7.453-1.863-5.124-5.124-11.179-4.193-19.097 0.466-2.329-6.987 5.124-11.179 1.863-18.166-12.576-36.332-27.016-58.224-39.127-11.645 0-20.029-4.192-24.221-9.316-3.726-4.658-0.932-10.713 4.658-11.179 3.261 0 6.987-0.932 9.782 0.932 0.466-1.863 2.329-4.192 4.657-4.192M157.904 16.215l0.932 0.466c4.658 0.932 6.987 7.453 12.11 5.124 0 3.261 0.466 6.521-0.466 8.85-1.397 3.726-5.59 3.726-8.85 3.726-31.208-1.863-49.374 11.179-68.471 22.358-5.124 3.261-10.713 5.59-14.906 9.782-20.029 18.632-41.921 35.866-47.045 70.335l-4.192 38.195c-0.466 4.192-5.124 8.384-4.192 13.508l3.26 22.824c-3.261-3.261-5.124 0.932-4.192 2.795 0.466 1.397 2.329 6.055 5.124 1.863 3.726 6.987 7.453 20.495 12.576 26.55 15.837 18.632 36.332 35.4 53.101 52.169 4.192-0.932 7.453-0.932 8.384-3.727 1.397 2.795-1.397 5.59-3.726 6.056 7.453 4.658 15.837 8.85 27.016 9.781 14.44 0.932 27.948 3.261 40.524 6.522 6.521-1.863 13.042-2.795 20.029-3.261 2.329 0 3.726-3.726 6.521-4.658l0.466-4.658c2.795 4.192 2.329-1.397 0.466-4.192 3.261 2.795 4.192 5.124 5.589 6.987 0-1.397 3.726-6.521 3.727-0.466l0.931-6.055c1.397-0.932 1.863 5.124 3.261 0.931 1.397-4.192 4.192-0.932 6.987-2.329-0.932 1.863-0.466 5.59 2.794 3.261l3.727-3.261c2.329 5.59 6.055 3.261 7.918 2.329 20.495-13.042 40.99-28.413 60.553-43.784l-0.466 6.055 2.329-7.453c2.329 2.329 4.192 0.466 5.124-0.931 2.795-4.658 6.521-9.316 12.577-13.508-7.453 20.029-16.303 35.866-27.482 48.908l-4.658 5.59c0 3.261-0.932 7.453-4.658 7.918-1.863 0.466-5.59-0.932-8.384 1.863-1.397 1.863 3.261 5.59-0.466 2.795-3.261-2.329-6.521 0-10.248 0.932-2.795 0.932 1.863 3.726 2.795 5.589 0.932 1.863 1.863 3.726 1.398 6.056l-5.124-5.59c-6.055 3.261-9.782 9.316-14.906 13.974-2.329 1.863-1.397 5.124-1.397 7.918-3.261 0-6.987-0.932-8.85 0.932-1.397 1.863-0.932 4.658-0.932 7.453-4.658-0.466-5.124-7.453-9.315-6.056-4.192 0.932-8.85 1.397-12.577 3.727 2.795 5.59-4.658 2.329-3.726 3.26-6.987-4.192-13.042-7.453-20.495-4.658-15.837-5.124-35.4-2.795-49.84-0.931 0-2.329 0.466-4.658-0.466-5.124-0.932 2.329-3.726 1.397-3.26 1.397-8.85-6.055-17.7-9.782-27.016-14.905-8.384 0.932-16.303-3.261-18.632-5.59-6.521-6.055-13.974-2.795-20.029-4.192-13.042-3.261-17.7-16.769-19.098-26.084-0.932-4.658-4.658-6.521-6.055-6.056-6.055-19.563-15.371-37.263-22.824-55.429-1.863-4.658-1.397-9.316-1.397-14.44 2.329 0.932 4.658 0.466 4.192-2.794-2.329-15.371-7.918-27.016-13.974-38.195 3.261-15.837 3.726-34.469 11.179-48.443 6.521-12.576 18.632-19.098 27.016-29.811 2.795-3.726 2.795-8.85 5.59-12.11 9.316-9.316 18.632-19.098 28.879-27.482 4.658-3.726 10.247 0 17.234-1.397 2.329-8.384 11.645-15.837 20.495-13.508 3.726 0.932 11.179-8.85 13.508-9.782 3.726-1.397 1.863 3.726 1.863 6.987 8.85-6.987 20.961-10.713 32.14-14.906" fill="#ff0000" fill-rule="nonzero" stroke="none" stroke-width="1" stroke-linecap="butt" stroke-linejoin="miter" stroke-miterlimit="10" stroke-dasharray="" stroke-dashoffset="0" font-family="none" font-weight="none" font-size="none" text-anchor="none" style="mix-blend-mode: normal" data-fill-palette-color="tertiary"></path></g><g transform="matrix(1,0,0,1,100.16398958638548,90)"><svg viewBox="0 0 119.67202082722903 180" height="180" width="119.67202082722903"><g><svg viewBox="0 0 192 288.78930731765956" height="180" width="119.67202082722903"><g transform="matrix(1,0,0,1,0,143.85371232377605)"><svg viewBox="0 0 192 144.9355949938835" height="144.9355949938835" width="192"><g id="textblocktransform"><svg viewBox="0 0 192 144.9355949938835" height="144.9355949938835" width="192" id="textblock"><g><svg viewBox="0 0 192 144.9355949938835" height="144.9355949938835" width="192"><path d="M191.55 31.086C190.648 16.042 188.075 11.859 188.075 11.859 180.177-3.636 170.321-0.296 161.466 1.93 145.832 2.02 130.262 5.33 114.664 7.105 81.926 7.376 48.907 2.923 16.331 13.905 13.271 17.275-3.175 14.567 0.544 33.012 1.519 40.684 5.076 49.199 4.967 56.24 5.455 57.474 6.132 54.645 6.42 56.42 7.431 61.205 9.083 58.948 10.437 61.776 8.551 69.328 9.905 75.617 11.195 82.206 8.921 83.921 6.005 83.109 4.696 88.796 4.561 92.918 3.83 92.136 3.027 91.955 2.44 91.835 1.257 92.286 1.456 93.58 2.133 98.003-0.774 100.56 1.05 104.893-0.205 109.587 1.916 113.649 1.627 118.734 1.591 119.757 1.79 120.629 2.106 120.87 3.505 122.164 1.465 124.691 1.682 127.429 16.033 146.144 31.604 133.206 46.308 141.812 50.126 135.794 47.256 143.948 48.781 142.684 49.972 141.21 50.839 147.318 52.184 143.858 52.392 142.865 52.076 140.518 52.816 140.969 53.204 141.21 53.547 141.15 53.601 139.766 53.682 137.69 52.969 138.983 52.78 137.9 54.829 132.424 54.323 145.452 56.246 144.911 56.156 143.316 55.596 141.029 56.742 141.33 57.88 139.044 57.916 137.148 58.927 142.293 58.963 143.406 59.143 144.189 59.432 144.73 62.591 139.134 65.732 146.716 69.045 144.189 71.076 141.421 73.026 145.693 75.084 144.64 75.806 143.798 76.537 142.293 77.232 144.821 85.744 145.362 94.815 143.106 102.885 144.911 124.449 141.541 147.493 146.295 170.23 141.842 175.592 140.127 181.161 137.69 186.387 135.734 186.387 135.734 190.621 130.378 190.621 106.307S191.523 85.245 191.659 66.079C191.794 46.912 192.426 46.13 191.523 31.086Z" opacity="1" fill="#ff0000" data-fill-palette-color="tertiary"></path><g transform="matrix(1,0,0,1,27.072000000000003,19.1)"><svg width="137.856" viewBox="2.9800000190734863 -36.98500061035156 48.64363479614258 37.665000915527344" height="106.7355949938835" data-palette-color="#ffffff"><path d="M51.46-9.13L51.46-9.13Q51.46-8.69 51.51-7.78 51.56-6.86 51.59-6.03 51.61-5.2 51.62-4.19 51.64-3.17 51.55-2.36 51.46-1.54 51.29-0.82 51.12-0.1 50.77 0.29 50.42 0.68 49.9 0.68L49.9 0.68 38.77 0.68Q37.6-0.22 37.6-6.05L37.6-6.05Q37.6-8.18 37.62-11.17 37.65-14.16 37.65-15.43L37.65-15.43 37.65-17.14Q37.65-17.36 37.61-17.98 37.57-18.6 37.6-18.95L37.6-18.95Q36.62-15.41 35.21-8.81 33.79-2.22 33.25 0L33.25 0Q33.01 0.68 31.01 0.68L31.01 0.68 22.36 0.68Q20.78 0.68 20.51-0.15L20.51-0.15 18.16-10.35Q17.85-11.91 17.47-13.6 17.09-15.28 16.58-17.43 16.06-19.58 15.82-20.61L15.82-20.61Q15.53-12.79 15.53-8.69L15.53-8.69 15.53-4.39Q15.53-1.51 15.58-0.05L15.58-0.05Q15.43 0.49 15.04 0.49L15.04 0.49 12.74 0.49Q11.3 0.49 8.52 0.51 5.74 0.54 4.3 0.54L4.3 0.54Q2.98 0.54 2.98 0.1L2.98 0.1 2.98-36.13Q2.98-36.35 3.09-36.51 3.2-36.67 3.43-36.76 3.66-36.84 3.88-36.89 4.1-36.94 4.44-36.95 4.79-36.96 5-36.98 5.22-36.99 5.57-36.98 5.91-36.96 6.01-36.96L6.01-36.96 8.89-36.96Q15.84-36.96 18.69-36.77 21.53-36.57 23.05-36.57L23.05-36.57Q23.63-33.3 24.9-26.86L24.9-26.86 26.76-17.14 30.66-36.87Q30.66-36.87 30.86-36.82 31.05-36.77 31.15-36.77L31.15-36.77Q33.76-36.77 38.87-36.84 43.97-36.91 46.58-36.91L46.58-36.91 50.2-36.91Q50.88-36.84 50.88-35.55L50.88-35.55Q51.42-11.89 51.46-9.13Z" opacity="1" transform="matrix(1,0,0,1,0,0)" fill="#ffffff" class="wordmark-text-0" data-fill-palette-color="quaternary" id="text-0"></path></svg></g></svg></g></svg></g></svg></g><g transform="matrix(1,0,0,1,36.672,0)"><svg viewBox="0 0 118.656 118.656" height="118.656" width="118.656"><g><svg xmlns="http://www.w3.org/2000/svg" xmlns:xlink="http://www.w3.org/1999/xlink" version="1.1" x="0" y="0" viewBox="2 2 60 60" style="enable-background:new 0 0 64 64;" xml:space="preserve" height="118.656" width="118.656" class="icon-icon-0" data-fill-palette-color="accent" id="icon-0"><path d="M20 38c-0.278 0-0.542 0.115-0.732 0.318-0.189 0.203-0.285 0.476-0.266 0.753l1 14C20.04 53.595 20.476 54 21 54h22c0.524 0 0.96-0.405 0.998-0.929l1-14c0.02-0.277-0.077-0.55-0.266-0.753C44.542 38.115 44.278 38 44 38h-2.103l-0.936-3.274c-0.07-0.245-0.23-0.454-0.449-0.584l-3.89-2.321C37.482 30.782 38 29.451 38 28c0-3.309-2.691-6-6-6s-6 2.691-6 6c0 1.451 0.518 2.782 1.377 3.821l-3.89 2.321c-0.219 0.13-0.379 0.339-0.449 0.584L22.103 38H20zM42.069 52H21.931l-0.857-12h1.783 18.286 1.783L42.069 52zM32 24c2.206 0 4 1.794 4 4 0 1.31-0.642 2.465-1.618 3.195-0.002 0.001-0.004 0.002-0.006 0.003-0.164 0.122-0.335 0.226-0.511 0.319-0.022 0.012-0.043 0.024-0.066 0.036-0.171 0.087-0.347 0.16-0.527 0.22-0.03 0.01-0.06 0.018-0.09 0.028-0.77 0.24-1.595 0.24-2.365 0-0.03-0.009-0.06-0.018-0.089-0.028-0.179-0.06-0.356-0.133-0.527-0.22-0.022-0.011-0.044-0.024-0.066-0.036-0.176-0.093-0.348-0.198-0.511-0.319-0.002-0.001-0.004-0.002-0.006-0.003C28.642 30.465 28 29.31 28 28 28 25.794 29.794 24 32 24zM24.853 35.655l4.141-2.471C29.879 33.7 30.904 34 32 34s2.121-0.3 3.006-0.815l4.141 2.471L39.817 38H24.183L24.853 35.655z" fill="#ed2647" data-fill-palette-color="accent"></path><path d="M61 56H3c-0.552 0-1 0.447-1 1v4c0 0.553 0.448 1 1 1h58c0.552 0 1-0.447 1-1v-4C62 56.447 61.552 56 61 56zM60 60H4v-2h56V60z" fill="#ed2647" data-fill-palette-color="accent"></path><rect x="47" y="45" width="2" height="2" fill="#ed2647" data-fill-palette-color="accent"></rect><rect x="51" y="45" width="2" height="2" fill="#ed2647" data-fill-palette-color="accent"></rect><rect x="55" y="45" width="2" height="2" fill="#ed2647" data-fill-palette-color="accent"></rect><rect x="55" y="41" width="2" height="2" fill="#ed2647" data-fill-palette-color="accent"></rect><rect x="55" y="37" width="2" height="2" fill="#ed2647" data-fill-palette-color="accent"></rect><rect x="55" y="33" width="2" height="2" fill="#ed2647" data-fill-palette-color="accent"></rect><rect x="55" y="29" width="2" height="2" fill="#ed2647" data-fill-palette-color="accent"></rect><rect x="55" y="25" width="2" height="2" fill="#ed2647" data-fill-palette-color="accent"></rect><rect x="55" y="21" width="2" height="2" fill="#ed2647" data-fill-palette-color="accent"></rect><rect x="15" y="45" width="2" height="2" fill="#ed2647" data-fill-palette-color="accent"></rect><rect x="11" y="45" width="2" height="2" fill="#ed2647" data-fill-palette-color="accent"></rect><rect x="7" y="45" width="2" height="2" fill="#ed2647" data-fill-palette-color="accent"></rect><rect x="7" y="41" width="2" height="2" fill="#ed2647" data-fill-palette-color="accent"></rect><rect x="7" y="37" width="2" height="2" fill="#ed2647" data-fill-palette-color="accent"></rect><rect x="7" y="33" width="2" height="2" fill="#ed2647" data-fill-palette-color="accent"></rect><rect x="7" y="28" width="2" height="2" fill="#ed2647" data-fill-palette-color="accent"></rect><rect x="7" y="24" width="2" height="2" fill="#ed2647" data-fill-palette-color="accent"></rect><rect x="7" y="20" width="2" height="2" fill="#ed2647" data-fill-palette-color="accent"></rect><rect x="30" y="45" width="4" height="2" fill="#ed2647" data-fill-palette-color="accent"></rect><path d="M9.293 6.293l-3 3c-0.391 0.391-0.391 1.023 0 1.414l3 3 1.414-1.414L8.414 10l2.293-2.293L9.293 6.293z" fill="#ed2647" data-fill-palette-color="accent"></path><path d="M20.707 6.293l-1.414 1.414L21.586 10l-2.293 2.293 1.414 1.414 3-3c0.391-0.391 0.391-1.023 0-1.414L20.707 6.293z" fill="#ed2647" data-fill-palette-color="accent"></path><rect x="10.528" y="9" transform="matrix(0.4472 -0.8944 0.8944 0.4472 -0.6525 18.9443)" width="8.944" height="2" fill="#ed2647" data-fill-palette-color="accent"></rect><path d="M3 18h24c0.552 0 1-0.447 1-1V3c0-0.553-0.448-1-1-1H3C2.448 2 2 2.447 2 3v14C2 17.553 2.448 18 3 18zM4 4h22v12H4V4z" fill="#ed2647" data-fill-palette-color="accent"></path><path d="M53 7c-2.206 0-4 1.794-4 4s1.794 4 4 4 4-1.794 4-4S55.206 7 53 7zM53 13c-1.103 0-2-0.897-2-2s0.897-2 2-2 2 0.897 2 2S54.103 13 53 13z" fill="#ed2647" data-fill-palette-color="accent"></path><path d="M61 8h-0.584c-0.017-0.041-0.033-0.082-0.05-0.122l0.413-0.413c0.188-0.188 0.293-0.441 0.293-0.707 0-0.265-0.105-0.52-0.293-0.707L57.95 3.222c-0.375-0.375-1.039-0.375-1.415 0l-0.413 0.413C56.082 3.618 56.041 3.601 56 3.584V3c0-0.553-0.448-1-1-1h-4c-0.552 0-1 0.447-1 1v0.584c-0.041 0.017-0.082 0.034-0.123 0.051l-0.413-0.413c-0.188-0.188-0.442-0.293-0.708-0.293s-0.52 0.105-0.707 0.293l-2.829 2.829c-0.188 0.188-0.293 0.442-0.293 0.707 0 0.266 0.105 0.52 0.293 0.707l0.413 0.413c-0.017 0.04-0.034 0.081-0.05 0.122H45c-0.552 0-1 0.447-1 1v4c0 0.553 0.448 1 1 1h0.584c0.017 0.041 0.034 0.082 0.051 0.123l-0.413 0.412c-0.188 0.188-0.293 0.441-0.293 0.707 0 0.265 0.105 0.52 0.293 0.707l2.829 2.829c0.375 0.375 1.039 0.375 1.415 0l0.413-0.413c0.041 0.017 0.082 0.034 0.123 0.051V19c0 0.553 0.448 1 1 1h4c0.552 0 1-0.447 1-1v-0.584c0.041-0.017 0.082-0.034 0.123-0.051l0.413 0.413c0.188 0.188 0.442 0.293 0.708 0.293s0.52-0.105 0.707-0.293l2.829-2.829c0.188-0.188 0.293-0.442 0.293-0.707 0-0.266-0.105-0.52-0.293-0.707l-0.413-0.412c0.017-0.041 0.034-0.082 0.051-0.123H61c0.552 0 1-0.447 1-1V9C62 8.447 61.552 8 61 8zM60 12h-0.294c-0.442 0-0.833 0.291-0.958 0.715-0.12 0.404-0.278 0.787-0.468 1.138-0.211 0.39-0.141 0.872 0.172 1.185l0.205 0.205-1.414 1.415-0.205-0.206c-0.312-0.312-0.794-0.381-1.185-0.172-0.349 0.189-0.732 0.347-1.139 0.469C54.291 16.874 54 17.264 54 17.706V18h-2v-0.294c0-0.442-0.291-0.832-0.714-0.958-0.407-0.122-0.79-0.279-1.139-0.469-0.389-0.21-0.872-0.141-1.185 0.172l-0.205 0.206-1.414-1.415 0.205-0.205c0.313-0.312 0.384-0.795 0.172-1.185-0.19-0.351-0.348-0.733-0.468-1.138C47.126 12.291 46.736 12 46.294 12H46v-2h0.294c0.442 0 0.833-0.291 0.958-0.715 0.12-0.403 0.277-0.786 0.469-1.139 0.211-0.39 0.141-0.871-0.173-1.184l-0.205-0.205 1.414-1.415 0.205 0.206c0.313 0.313 0.797 0.384 1.185 0.172 0.349-0.189 0.732-0.347 1.139-0.469C51.709 5.126 52 4.736 52 4.294V4h2v0.294c0 0.442 0.291 0.832 0.714 0.958 0.407 0.122 0.79 0.279 1.139 0.469 0.389 0.211 0.871 0.141 1.185-0.172l0.205-0.206 1.414 1.415-0.205 0.205c-0.313 0.312-0.384 0.794-0.173 1.184 0.191 0.353 0.349 0.735 0.469 1.139C58.874 9.709 59.264 10 59.706 10H60V12z" fill="#ed2647" data-fill-palette-color="accent"></path><rect x="23.5" y="19.379" transform="matrix(0.7071 -0.7071 0.7071 0.7071 -8.0269 23.6213)" width="2" height="4.243" fill="#ed2647" data-fill-palette-color="accent"></rect><rect x="37.379" y="20.5" transform="matrix(0.7071 -0.7071 0.7071 0.7071 -3.6335 34.2279)" width="4.243" height="2" fill="#ed2647" data-fill-palette-color="accent"></rect><rect x="31" y="15" width="2" height="3" fill="#ed2647" data-fill-palette-color="accent"></rect></svg></g></svg></g><g></g></svg></g></svg></g></svg></g><defs></defs></svg><rect width="320" height="360" fill="none" stroke="none" visibility="hidden"></rect></g></svg></g></svg>